<svg width="70" height="70" viewBox="0 0 70 70" fill="none" xmlns="http://www.w3.org/2000/svg">
<path fill-rule="evenodd" clip-rule="evenodd" d="M2.91699 34.9998C2.91699 17.2811 17.2816 2.9165 35.0003 2.9165C52.7191 2.9165 67.0837 17.2811 67.0837 34.9998C67.0837 52.7186 52.7191 67.0832 35.0003 67.0832C17.2816 67.0832 2.91699 52.7186 2.91699 34.9998ZM43.167 27.4165C42.7029 26.7977 42.0119 26.3885 41.2461 26.2792C40.4804 26.1698 39.7025 26.369 39.0837 26.8332C38.4648 27.2973 38.0557 27.9883 37.9463 28.754C37.8369 29.5198 38.0362 30.2977 38.5003 30.9165L41.5628 34.9998L38.5003 39.0832C38.0362 39.702 37.8369 40.4799 37.9463 41.2456C38.0557 42.0114 38.4648 42.7024 39.0837 43.1665C39.7025 43.6306 40.4804 43.8299 41.2461 43.7205C42.0119 43.6111 42.7029 43.202 43.167 42.5832L45.2087 39.8619L47.2503 42.5832C47.7145 43.202 48.4054 43.6111 49.1712 43.7205C49.5503 43.7747 49.9365 43.7536 50.3075 43.6586C50.6786 43.5635 51.0272 43.3963 51.3337 43.1665C51.6401 42.9367 51.8982 42.6488 52.0934 42.3192C52.2885 41.9896 52.4168 41.6248 52.471 41.2456C52.5252 40.8665 52.5041 40.4803 52.4091 40.1093C52.314 39.7383 52.1468 39.3896 51.917 39.0832L48.8545 34.9998L51.917 30.9165C52.3811 30.2977 52.5804 29.5198 52.471 28.754C52.3616 27.9883 51.9525 27.2973 51.3337 26.8332C51.0272 26.6034 50.6786 26.4361 50.3075 26.3411C49.9365 26.246 49.5503 26.225 49.1712 26.2792C48.4054 26.3885 47.7145 26.7977 47.2503 27.4165L45.2087 30.1378L43.167 27.4165ZM23.3337 29.1665C23.3337 28.393 23.0264 27.6511 22.4794 27.1041C21.9324 26.5571 21.1905 26.2498 20.417 26.2498C19.6434 26.2498 18.9016 26.5571 18.3546 27.1041C17.8076 27.6511 17.5003 28.393 17.5003 29.1665V34.9998C17.5003 36.4378 17.9087 38.5319 19.2153 40.349C20.6328 42.3207 22.9662 43.7498 26.2503 43.7498C29.5345 43.7498 31.8678 42.3148 33.2853 40.349C34.592 38.5319 35.0003 36.4407 35.0003 34.9998V29.1665C35.0003 28.393 34.693 27.6511 34.1461 27.1041C33.5991 26.5571 32.8572 26.2498 32.0837 26.2498C31.3101 26.2498 30.5682 26.5571 30.0213 27.1041C29.4743 27.6511 29.167 28.393 29.167 29.1665V34.9998C29.167 35.5044 28.992 36.3298 28.5487 36.9423C28.2162 37.4061 27.6328 37.9165 26.2503 37.9165C24.8678 37.9165 24.2845 37.4061 23.952 36.9423C23.5637 36.3676 23.3491 35.6933 23.3337 34.9998V29.1665Z" fill="#8723E9"/>
</svg>
